<svg width="200" height="68" viewBox="0 0 200 68" fill="none" xmlns="http://www.w3.org/2000/svg">
<g clip-path="url(#clip0_2212_25696)">
<path d="M29.6536 0.686119C29.2677 0.734325 28.5339 0.989125 24.0205 2.62467C21.2437 3.63355 18.8114 4.51158 18.6115 4.57701C18.4151 4.64242 18.1602 4.74227 18.0431 4.80081C16.8717 5.38617 15.9828 6.62229 15.7347 8.00649C15.6555 8.44723 15.6796 9.31493 15.7795 9.75567C16.0999 11.133 16.851 12.135 18.0224 12.741C18.422 12.9476 18.7631 13.0681 19.18 13.1438C19.6141 13.2265 20.3342 13.1989 20.7648 13.0853C20.9371 13.0405 23.3246 12.1935 26.0705 11.2087C28.8198 10.2205 31.2315 9.3597 31.4346 9.29083C32.4475 8.95683 33.1781 8.36115 33.7293 7.42802C34.4526 6.20567 34.5492 4.69407 33.9911 3.32022C33.4466 1.96701 32.1686 0.947807 30.7216 0.713665C30.439 0.66546 29.9085 0.651686 29.6536 0.686119Z" fill="#89B369"/>
<path d="M52.1942 4.88383C52.0494 4.90793 51.8703 4.9527 51.7979 4.97679C51.7257 5.00435 43.3296 8.6542 33.1385 13.0857C22.9475 17.5206 14.5928 21.1498 14.5721 21.1498C14.486 21.1498 13.8245 21.439 13.5696 21.5905C13.2147 21.8006 12.6601 22.3274 12.3776 22.7234C12.0227 23.2192 11.7333 23.87 11.592 24.4897C11.5025 24.8926 11.5093 25.8119 11.6093 26.27C11.9193 27.7023 12.7393 28.7766 14.0002 29.3929C14.8753 29.8233 15.747 29.9233 16.629 29.6924C16.7633 29.6581 25.211 26.0152 35.402 21.5974C45.5965 17.1832 54.0925 13.5126 54.282 13.4472C54.4715 13.3818 54.7057 13.2888 54.7989 13.2406C55.9978 12.6415 56.9211 11.3572 57.1484 9.97642C57.2242 9.50812 57.1968 8.83669 57.0794 8.34087C56.8556 7.38363 56.4974 6.7122 55.8704 6.08553C55.2364 5.44852 54.4819 5.04223 53.6446 4.8804C53.3002 4.81497 52.5593 4.8184 52.1942 4.88383Z" fill="#89B369"/>
<path d="M41.0406 24.1667C40.8649 24.1805 40.6238 24.2184 40.4998 24.2459C40.3654 24.2769 32.8512 27.5137 21.7094 32.3445C11.5011 36.7655 3.05337 40.4188 2.93968 40.4569C1.472 40.9596 0.321286 42.3539 0.0422206 43.9759C-0.0266842 44.3648 -0.00601277 45.2292 0.0801182 45.6146C0.393636 47.0369 1.20671 48.0974 2.45734 48.7137C3.33242 49.1475 4.16619 49.2509 5.05161 49.0374C5.18596 49.003 13.0962 45.5942 23.904 40.9146C34.1468 36.4798 42.6116 32.823 42.7149 32.7954C42.9629 32.7233 43.4902 32.465 43.759 32.2826C44.0413 32.0897 44.5374 31.6109 44.7442 31.3287C45.4298 30.3922 45.7537 29.3075 45.647 28.2917C45.4918 26.8147 44.8062 25.6164 43.6866 24.8726C42.8493 24.3148 41.9811 24.0841 41.0406 24.1667Z" fill="#89B369"/>
<path d="M52.2949 33.9455C52.1294 33.9695 51.9433 34.004 51.8813 34.0213C51.8193 34.0418 47.1512 35.8082 41.5042 37.95C35.8575 40.0917 31.1687 41.8719 31.0824 41.9028C30.7931 42.0028 30.2728 42.2885 30.0213 42.4813C29.8284 42.6295 29.6836 42.705 29.377 42.8119C28.8535 42.9979 28.0471 43.3971 27.6029 43.6934C26.1937 44.6265 24.9913 46.1554 24.4194 47.7426C24.2678 48.1524 24.1162 48.7584 24.0301 49.2645C23.9405 49.8085 23.9405 51.2719 24.0301 51.8124C24.3367 53.6443 25.1188 55.1147 26.5038 56.4611C27.2205 57.1564 27.8164 57.5766 28.688 57.9966C29.484 58.3789 30.2281 58.5959 31.3134 58.7611C31.8196 58.8369 31.8439 58.8369 36.4225 58.8369C40.6843 58.8369 41.0462 58.8334 41.3459 58.7749C42.1866 58.6164 42.8376 58.2826 43.4577 57.6902C44.1332 57.0463 44.5361 56.2717 44.6705 55.366C44.8704 54.0265 44.481 52.7801 43.5612 51.8228C42.9411 51.1756 42.3002 50.807 41.4699 50.6144C41.1771 50.5455 41.0393 50.5421 38.7861 50.5317L36.4122 50.5179L36.4364 49.9258C36.4502 49.5986 36.4707 49.3231 36.4846 49.3092C36.5191 49.2749 53.7901 42.688 54.1725 42.564C54.8339 42.347 55.3334 42.051 55.8125 41.586C56.4533 40.9732 56.9012 40.164 57.1147 39.2445C57.2044 38.8692 57.2044 37.9947 57.1181 37.5643C56.8666 36.3213 56.2223 35.3021 55.2647 34.648C54.3482 34.0179 53.3422 33.7801 52.2949 33.9455Z" fill="#89B369"/>
<path d="M28.1025 63.1816C28.1611 63.6844 28.3402 64.1286 28.6537 64.535C29.5221 65.6644 31.6685 66.6456 33.9941 66.9762C35.8062 67.2345 37.8595 67.1895 39.5237 66.8557C41.5219 66.4562 43.2065 65.6332 44.0954 64.6278C44.4262 64.2491 44.7259 63.5226 44.7259 63.0888V62.9854H36.4021H28.082L28.1025 63.1816Z" fill="#89B369"/>
</g>
<path d="M73.7893 16.4153C72.9872 16.4153 72.5625 16.7457 72.5625 17.6427V48.2361C72.5625 49.0387 72.9872 49.4636 73.7893 49.4636H86.2932C94.8337 49.4636 99.7408 46.3476 99.7408 39.3602C99.7408 35.9611 97.7591 33.27 94.5976 32.3257C97.0986 31.1453 98.7028 28.832 98.7028 25.6216C98.7028 19.1535 94.409 16.4153 86.1517 16.4153H73.7893ZM80.7726 24.2996C80.7726 23.7803 80.9142 23.5915 81.4804 23.5915H85.6798C88.9356 23.5915 90.3039 24.3469 90.3039 26.377C90.3039 28.4071 88.9356 29.2097 85.6798 29.2097H81.4804C80.9142 29.2097 80.7726 29.0208 80.7726 28.5015V24.2996ZM91.2476 39.3131C91.2476 41.3903 89.7377 42.2873 86.2932 42.2873H81.4804C80.9142 42.2873 80.7726 42.0986 80.7726 41.5793V37.094C80.7726 36.5274 80.9142 36.3858 81.4804 36.3858H86.2932C89.6433 36.3858 91.2476 37.2357 91.2476 39.3131ZM112.625 47.9528L120.882 30.7677L129.234 47.9528C129.8 49.133 130.272 49.4636 131.452 49.4636H137.491C138.199 49.4636 138.576 49.2276 138.576 48.7554C138.576 48.5194 138.482 48.2361 138.34 47.9528L123.194 17.9732C122.25 16.132 121.779 15.5654 121.024 15.5654C120.269 15.5654 119.75 16.132 118.853 17.9732L103.801 47.9528C103.66 48.2361 103.565 48.5194 103.565 48.8027C103.565 49.2276 103.896 49.4636 104.603 49.4636H110.36C111.54 49.4636 112.059 49.133 112.625 47.9528ZM166.502 39.7378C164.096 41.5793 161.406 42.5235 158.528 42.5235C153.102 42.5235 149.138 38.5105 149.138 32.9867C149.138 27.274 153.102 23.3554 158.528 23.3554C161.218 23.3554 163.86 24.2524 166.408 26.0937C166.738 26.3297 167.069 26.4714 167.352 26.4714C167.682 26.4714 167.965 26.2825 168.248 25.8576L170.985 21.9863C171.221 21.6558 171.315 21.3725 171.315 21.1364C171.315 20.8532 171.126 20.5699 170.749 20.2394C167.399 17.4539 163.247 15.8015 158.575 15.8015C148.336 15.6599 140.504 23.261 140.645 33.1283C140.456 42.7122 148.336 50.2189 158.198 50.0773C162.869 50.0773 167.163 48.4721 170.56 45.6393C171.032 45.2146 171.268 44.8367 171.268 44.5537C171.268 44.3174 171.174 44.0341 170.985 43.7511L168.295 39.8795C167.965 39.5018 167.776 39.3131 167.446 39.3131C167.21 39.3131 166.88 39.4548 166.502 39.7378ZM184.335 49.4636C185.232 49.4636 185.609 49.133 185.609 48.2361V38.5105C185.609 37.991 185.751 37.8023 186.317 37.8023H197.122C198.019 37.8023 198.396 37.4717 198.396 36.5747V31.5232C198.396 30.626 198.019 30.2483 197.122 30.2483H186.317C185.751 30.2483 185.609 30.1067 185.609 29.5402V24.6773C185.609 24.158 185.751 23.9692 186.317 23.9692H198.726C199.623 23.9692 200 23.6387 200 22.7417V17.6427C200 16.8402 199.576 16.4153 198.726 16.4153H178.626C177.824 16.4153 177.399 16.7457 177.399 17.6427V48.2361C177.399 49.0387 177.824 49.4636 178.626 49.4636H184.335Z" fill="#4F4F4F"/>
<defs>
<clipPath id="clip0_2212_25696">
<rect width="59.2934" height="66.6666" fill="white" transform="translate(0 0.666992)"/>
</clipPath>
</defs>
</svg>
