<svg width="200" height="66" viewBox="0 0 200 66" fill="none" xmlns="http://www.w3.org/2000/svg">
<ellipse cx="9.91542" cy="59.1698" rx="2.3246" ry="3.37786" fill="#89B369"/>
<path d="M19.6185 44.886C19.6185 40.194 16.5585 35.57 10.5065 35.57C4.45443 35.57 0.816406 39.888 0.816406 45.192C0.816406 51.5841 4.96444 54.6781 10.1665 54.6781C14.8245 54.6781 18.2245 52.3661 19.2785 48.2521H13.2605C13.0225 49.6461 11.9685 50.5301 10.2345 50.5301C8.50046 50.5301 7.17445 49.6801 6.86845 46.654H19.5165C19.5845 46.042 19.6185 45.43 19.6185 44.886ZM10.2005 39.718C11.8325 39.718 12.8865 40.772 13.2265 42.914H7.07245C7.48046 40.67 8.60246 39.718 10.2005 39.718Z" fill="#89B369"/>
<path d="M31.3686 35.57C30.2125 35.57 28.7845 36.08 27.7985 37.168L26.5065 39.718V36.046H20.3865V54.2021H26.5065V47.538C26.5065 42.064 28.1725 40.364 32.7626 40.67V35.672C32.3206 35.604 31.9466 35.57 31.3686 35.57Z" fill="#89B369"/>
<path d="M42.348 34.788L47.618 30.5379H42.178L39.084 34.788H42.348ZM43.436 54.2021H49.42C49.148 52.1961 49.08 50.9721 49.08 49.6121V44.512C49.08 43.39 49.046 42.336 48.978 41.418C48.706 38.12 46.734 35.57 40.988 35.57C36.3979 35.57 32.6239 37.984 32.5899 42.234L38.3699 42.2C38.4719 40.636 39.288 39.718 40.716 39.718C42.042 39.718 42.79 40.534 42.892 41.452C42.96 42.03 42.96 42.404 42.96 42.778V43.05H41.804C35.6499 43.05 31.9779 45.43 31.9779 49.3061C31.9779 52.8081 34.7999 54.6781 37.7919 54.6781C39.458 54.6781 40.988 54.2701 42.28 53.4541L43.028 51.5501L43.436 54.2021ZM40.308 50.5301C39.084 50.5301 38.234 49.9181 38.234 48.8301C38.234 47.028 40.206 46.314 42.96 46.518V47.7081C42.96 49.6121 41.532 50.5301 40.308 50.5301Z" fill="#89B369"/>
<path d="M59.4132 35.57C54.0751 35.57 49.8591 39.072 49.8591 45.328C49.8591 51.3121 53.8031 54.6781 59.0052 54.6781C63.9352 54.6781 67.5732 52.2301 68.2533 47.538H62.2352C61.8952 49.5101 60.7392 50.5301 59.3452 50.5301C57.2712 50.5301 56.1152 48.8301 56.1152 44.954C56.1152 41.452 57.2372 39.718 59.2772 39.718C60.8072 39.718 61.9972 40.602 62.2692 42.982H68.1853C68.0153 38.902 64.7512 35.57 59.4132 35.57Z" fill="#89B369"/>
<path d="M77.7024 35.57C71.7524 35.57 67.9443 39.276 67.9443 45.124C67.9443 50.9381 71.7524 54.6781 77.7024 54.6781C83.6524 54.6781 87.4605 50.9381 87.4605 45.124C87.4605 39.276 83.6524 35.57 77.7024 35.57ZM77.7024 50.5301C75.5264 50.5301 74.2004 48.7281 74.2004 45.124C74.2004 41.486 75.5264 39.718 77.7024 39.718C79.8784 39.718 81.2044 41.486 81.2044 45.124C81.2044 48.7281 79.8784 50.5301 77.7024 50.5301Z" fill="#89B369"/>
<path d="M106.503 40.5C106.027 37.338 103.817 35.57 100.077 35.57C98.4109 35.57 97.1189 35.944 95.9969 36.624L94.3649 38.868V36.046H88.2449V54.2021H94.3649V45.634C94.3649 41.52 95.6909 39.718 97.5609 39.718C99.397 39.718 100.349 40.738 100.485 42.472C100.553 43.39 100.553 44.376 100.553 44.954V54.2021H106.673V43.934C106.673 42.472 106.639 41.418 106.503 40.5Z" fill="#89B369"/>
<path d="M126.514 40.5C126.038 37.338 123.828 35.57 120.088 35.57C118.422 35.57 117.13 35.944 116.008 36.624L114.376 38.868V36.046H108.256V54.2021H114.376V45.634C114.376 41.52 115.702 39.718 117.572 39.718C119.408 39.718 120.36 40.738 120.496 42.472C120.564 43.39 120.564 44.376 120.564 44.954V54.2021H126.684V43.934C126.684 42.472 126.65 41.418 126.514 40.5Z" fill="#89B369"/>
<path d="M146.049 44.886C146.049 40.194 142.989 35.57 136.937 35.57C130.885 35.57 127.247 39.888 127.247 45.192C127.247 51.5841 131.395 54.6781 136.597 54.6781C141.255 54.6781 144.655 52.3661 145.709 48.2521H139.691C139.453 49.6461 138.399 50.5301 136.665 50.5301C134.931 50.5301 133.605 49.6801 133.299 46.654H145.947C146.015 46.042 146.049 45.43 146.049 44.886ZM136.631 39.718C138.263 39.718 139.317 40.772 139.657 42.914H133.503C133.911 40.67 135.033 39.718 136.631 39.718Z" fill="#89B369"/>
<path d="M155.351 35.57C150.013 35.57 145.797 39.072 145.797 45.328C145.797 51.3121 149.741 54.6781 154.943 54.6781C159.873 54.6781 163.511 52.2301 164.191 47.538H158.173C157.833 49.5101 156.677 50.5301 155.283 50.5301C153.209 50.5301 152.053 48.8301 152.053 44.954C152.053 41.452 153.175 39.718 155.215 39.718C156.745 39.718 157.935 40.602 158.207 42.982H164.123C163.953 38.902 160.689 35.57 155.351 35.57Z" fill="#89B369"/>
<path d="M172.314 47.47L177.176 54.2021H184.69L176.904 44.376L184.588 36.046H177.414L171.022 43.662V29.2119H164.902V54.2021H171.022V48.8981L172.314 47.47Z" fill="#89B369"/>
<path d="M191.859 39.99H195.871V36.182H191.859V31.4899H185.739V36.182H182.849V39.99H185.739V47.572C185.739 48.5921 185.739 49.4421 185.807 50.4961C186.011 53.2841 187.371 54.6781 191.893 54.6781C193.185 54.6781 194.307 54.5761 195.497 54.3721V50.5641C192.607 50.7001 192.029 50.2921 191.893 48.4561C191.859 47.9801 191.859 47.3 191.859 46.688V39.99Z" fill="#89B369"/>
<path d="M189.724 0.683499C189.136 0.369704 188.498 0.159803 187.839 0.0629245C184.677 -0.404261 181.735 1.78039 181.268 4.94243C181.05 6.41916 181.41 7.92302 182.275 9.13995L176.113 14.7351C173.967 12.361 170.302 12.1761 167.929 14.3223C167.409 14.7924 166.978 15.353 166.658 15.9767L159.553 10.2412C159.715 7.04648 157.256 4.32556 154.061 4.16383C150.867 4.0021 148.146 6.46071 147.984 9.65544C147.966 10.0215 147.982 10.3886 148.033 10.7517L141.335 17.6054C139.158 15.2648 135.496 15.1326 133.155 17.3103C130.815 19.4878 130.683 23.1505 132.86 25.491C135.037 27.8316 138.7 27.9638 141.04 25.7862C142.618 24.3182 143.25 22.0953 142.68 20.0169L149.133 13.4136C151.048 15.9745 154.676 16.4982 157.237 14.5831C157.827 14.142 158.327 13.5922 158.711 12.9636L166.028 18.8696C166.149 21.6452 168.224 23.9436 170.973 24.3478C171.255 24.3895 171.541 24.4104 171.827 24.4106C175.028 24.4009 177.616 21.7975 177.607 18.5956C177.605 18.1005 177.54 17.6076 177.413 17.1289L184.27 10.9029C187.092 12.4089 190.601 11.3421 192.106 8.52003C193.612 5.698 192.546 2.18948 189.724 0.683499ZM140.206 22.0017C139.955 23.7216 138.357 24.9123 136.637 24.661C134.918 24.4098 133.727 22.8118 133.978 21.0919C134.229 19.3721 135.827 18.1814 137.547 18.4327C137.549 18.433 137.55 18.4332 137.552 18.4334C139.269 18.6879 140.456 20.284 140.206 22.0017ZM156.881 10.4008C156.628 12.1189 155.03 13.3066 153.312 13.0535C151.594 12.8003 150.406 11.2023 150.659 9.48418C150.886 7.94393 152.206 6.80164 153.763 6.79793C153.918 6.79807 154.073 6.80932 154.226 6.83195C155.943 7.08605 157.131 8.68256 156.881 10.4008ZM174.926 19.0744C174.673 20.7926 173.075 21.9803 171.357 21.7271C169.639 21.4739 168.451 19.8759 168.704 18.1578C168.931 16.6176 170.251 15.4751 171.808 15.4716C171.963 15.4716 172.118 15.4829 172.271 15.5056C173.989 15.7581 175.178 17.3558 174.925 19.0743V19.0744H174.926ZM190.108 6.25002C189.856 7.96934 188.258 9.15901 186.539 8.90715C184.819 8.65529 183.63 7.0572 183.882 5.33788C184.134 3.61856 185.732 2.42889 187.451 2.68075C187.452 2.68088 187.453 2.68101 187.453 2.68115C189.172 2.9338 190.36 4.53162 190.108 6.25002H190.108Z" fill="#EB8145"/>
</svg>
