<svg width="199" height="81" viewBox="0 0 199 81" fill="none" xmlns="http://www.w3.org/2000/svg">
<path fill-rule="evenodd" clip-rule="evenodd" d="M27.7073 14.4585C29.0973 15.8486 31.3509 15.8486 32.7409 14.4585L34.9069 12.2926C37.4931 9.70637 41.6862 9.70637 44.2725 12.2926L47.1402 15.1603C47.7279 15.748 48.0218 16.0419 48.248 16.3112C50.7868 19.3323 50.7868 23.7411 48.248 26.7622C48.0218 27.0315 47.7279 27.3254 47.1402 27.9131L43.3413 31.712C41.9178 33.1355 41.9178 35.4435 43.3413 36.8671L44.286 37.8117C45.1878 38.7136 46.6499 38.7136 47.5517 37.8117C48.4537 36.9097 49.916 36.9092 50.8187 37.8106L53.8674 40.8549L55.9107 42.9011C57.3682 44.3606 59.7331 44.3615 61.1917 42.9031C62.647 41.4477 62.647 39.0881 61.1917 37.6327L59.144 35.5851C56.5591 33.0002 56.5542 28.8063 59.1373 26.2195C61.7205 23.6325 61.7196 19.4418 59.1352 16.856L46.9694 4.6834C45.5616 3.27478 44.8577 2.57048 44.1507 2.10877C41.4528 0.347008 37.9687 0.346521 35.2703 2.10752C34.5632 2.56904 33.859 3.27315 32.4508 4.68138L27.7073 9.4249C26.3173 10.8149 26.3173 13.0685 27.7073 14.4585ZM20.2783 45.4094C22.8645 47.9957 22.8645 52.1888 20.2783 54.775C17.692 57.3612 17.692 61.5543 20.2783 64.1406L32.4508 76.3131C33.8606 77.7229 34.5654 78.4277 35.2736 78.8896C37.9704 80.6487 41.4518 80.6487 44.1487 78.8896C44.8568 78.4277 45.5617 77.7229 46.9715 76.3131L51.715 71.5696C53.105 70.1796 53.105 67.9259 51.715 66.5359C50.258 65.079 47.8956 65.0799 46.4397 66.5379L44.3364 68.6444C41.7862 71.1984 37.6479 71.2 35.0958 68.6479L32.1067 65.6588C31.5691 65.1212 31.3003 64.8523 31.0915 64.6076C28.5011 61.5708 28.5011 57.1019 31.0915 54.0651C31.3003 53.8203 31.5691 53.5515 32.1067 53.0138L35.855 49.2656C37.2761 47.8444 37.2746 45.5399 35.8516 44.1206L34.9124 43.184C34.0067 42.2806 32.5408 42.28 31.6343 43.1827C30.7282 44.085 29.2626 44.0835 28.3583 43.1793L23.0987 37.9197C21.6752 36.4961 19.3672 36.4961 17.9436 37.9197C16.5201 39.3432 16.5201 41.6512 17.9436 43.0748L20.2783 45.4094Z" fill="#201F4F"/>
<path fill-rule="evenodd" clip-rule="evenodd" d="M3.89591 47.7566L8.63945 52.5001C10.0294 53.8901 12.2831 53.8901 13.673 52.5C15.1227 51.0504 15.1227 48.7001 13.673 47.2505L11.615 45.1925C9.02881 42.6062 9.02881 38.4131 11.615 35.8269L14.3748 33.0672C14.9625 32.4794 15.2564 32.1856 15.5257 31.9593C18.5468 29.4205 22.9556 29.4205 25.9767 31.9593C26.246 32.1856 26.5398 32.4794 27.1276 33.0672L30.9264 36.866C32.35 38.2896 34.658 38.2896 36.0816 36.866L36.9655 35.9821C37.9008 35.0467 37.9008 33.5302 36.9655 32.5949C36.0301 31.6595 36.0301 30.143 36.9655 29.2076L42.1138 24.0592C43.5076 22.6655 43.5076 20.4058 42.1138 19.0121C40.7201 17.6184 38.4604 17.6184 37.0667 19.0121L34.9075 21.1713C32.3213 23.7575 28.1282 23.7575 25.5419 21.1713L25.4879 21.1173C22.8719 18.5013 18.6305 18.5013 16.0144 21.1173L3.89591 33.2358C2.48611 34.6456 1.78121 35.3505 1.31932 36.0587C-0.439773 38.7555 -0.439773 42.2369 1.31932 44.9337C1.78121 45.6419 2.48611 46.3468 3.89591 47.7566ZM42.404 48.3436C43.3095 49.2491 43.3095 50.7173 42.404 51.6229L37.3096 56.7172C35.8562 58.1706 35.8562 60.527 37.3096 61.9803C38.763 63.4337 41.1193 63.4337 42.5727 61.9803L44.7454 59.8076C47.3316 57.2214 51.5247 57.2214 54.1109 59.8076C56.6972 62.3938 60.8903 62.3938 63.4765 59.8076L75.5276 47.7565C76.9373 46.3468 77.6422 45.6419 78.1041 44.9338C79.8632 42.2369 79.8632 38.7555 78.1041 36.0586C77.6422 35.3505 76.9373 34.6456 75.5276 33.2359L70.8448 28.5531C69.4212 27.1295 67.1132 27.1295 65.6897 28.5531C64.2661 29.9766 64.2661 32.2847 65.6897 33.7082L67.7949 35.8134C70.3811 38.3997 70.3811 42.5928 67.7949 45.179L65.0487 47.9252C64.4609 48.513 64.167 48.8068 63.8978 49.0331C60.8766 51.5719 56.4679 51.5719 53.4467 49.0331C53.1775 48.8068 52.8836 48.513 52.2958 47.9252L48.497 44.1264C47.0735 42.7028 44.7654 42.7028 43.3419 44.1264L42.404 45.0643C41.4984 45.9698 41.4984 47.438 42.404 48.3436Z" fill="#EB8145"/>
<line x1="88.2244" y1="0.787109" x2="88.2244" y2="80.2105" stroke="#EB8145" stroke-width="0.132372"/>
<path d="M116.089 32.2967C112.642 32.2967 109.655 31.7077 107.127 30.5297C104.638 29.3137 102.723 27.6037 101.383 25.3996C100.042 23.1956 99.372 20.5926 99.372 17.5906C99.372 14.7026 100.004 12.1755 101.268 10.0095C102.57 7.80551 104.332 6.09549 106.553 4.87948C108.812 3.62547 111.378 2.99847 114.251 2.99847C116.357 2.99847 118.272 3.34047 119.995 4.02448C121.718 4.67048 123.193 5.63949 124.418 6.9315C125.644 8.18551 126.563 9.70552 127.176 11.4915C127.827 13.2775 128.152 15.2726 128.152 17.4766C128.152 18.2366 127.942 18.8066 127.52 19.1866C127.099 19.5286 126.429 19.6996 125.51 19.6996H107.931V14.9116H120.684L119.765 15.6526C119.765 14.2466 119.574 13.1065 119.191 12.2325C118.808 11.3585 118.233 10.6935 117.467 10.2375C116.74 9.78152 115.821 9.55352 114.71 9.55352C113.523 9.55352 112.489 9.83852 111.608 10.4085C110.765 10.9405 110.114 11.7385 109.655 12.8025C109.195 13.8666 108.965 15.1966 108.965 16.7926V17.3056C108.965 20.0036 109.559 21.9416 110.746 23.1196C111.972 24.2596 113.848 24.8296 116.376 24.8296C117.219 24.8296 118.176 24.7346 119.248 24.5446C120.359 24.3166 121.412 24.0126 122.408 23.6326C123.404 23.2526 124.265 23.1956 124.993 23.4616C125.721 23.6896 126.276 24.1076 126.659 24.7156C127.08 25.2856 127.31 25.9506 127.348 26.7106C127.386 27.4327 127.214 28.1547 126.831 28.8767C126.448 29.5607 125.816 30.0927 124.935 30.4727C123.595 31.0807 122.159 31.5367 120.627 31.8407C119.133 32.1447 117.621 32.2967 116.089 32.2967Z" fill="#201F4F"/>
<path d="M137.785 32.1827C136.1 32.1827 134.798 31.7457 133.879 30.8717C132.998 29.9977 132.558 28.7247 132.558 27.0527V8.18551C132.558 6.5515 132.979 5.29749 133.822 4.42348C134.702 3.54947 135.947 3.11247 137.556 3.11247C139.164 3.11247 140.39 3.54947 141.232 4.42348C142.075 5.29749 142.496 6.5515 142.496 8.18551V10.5225H141.921C142.304 8.24251 143.281 6.4375 144.851 5.10749C146.46 3.77747 148.451 3.07447 150.825 2.99847C151.936 2.96047 152.76 3.24547 153.296 3.85348C153.87 4.42348 154.177 5.50649 154.215 7.1025C154.215 8.47051 153.928 9.55352 153.353 10.3515C152.779 11.1495 151.687 11.6245 150.079 11.7765L148.757 11.8905C146.728 12.0805 145.253 12.6505 144.334 13.6006C143.415 14.5126 142.955 15.8806 142.955 17.7046V27.0527C142.955 28.7247 142.515 29.9977 141.634 30.8717C140.753 31.7457 139.47 32.1827 137.785 32.1827Z" fill="#201F4F"/>
<path d="M167.009 32.2967C164.826 32.2967 162.892 31.8977 161.207 31.0997C159.56 30.3017 158.258 29.2187 157.3 27.8507C156.381 26.4446 155.922 24.8486 155.922 23.0626C155.922 21.0106 156.458 19.3956 157.53 18.2176C158.602 17.0396 160.326 16.2036 162.7 15.7096C165.075 15.1776 168.234 14.9116 172.179 14.9116H175.338V19.6996H172.179C170.685 19.6996 169.44 19.8136 168.445 20.0416C167.487 20.2316 166.779 20.5546 166.319 21.0106C165.86 21.4286 165.63 21.9796 165.63 22.6636C165.63 23.5376 165.936 24.2596 166.549 24.8296C167.2 25.3996 168.119 25.6846 169.306 25.6846C170.264 25.6846 171.106 25.4756 171.834 25.0576C172.6 24.6396 173.213 24.0696 173.672 23.3476C174.132 22.5876 174.362 21.7136 174.362 20.7256V14.1136C174.362 12.7455 173.998 11.7765 173.27 11.2065C172.581 10.6365 171.374 10.3515 169.651 10.3515C168.732 10.3515 167.698 10.4655 166.549 10.6935C165.4 10.8835 164.117 11.2445 162.7 11.7765C161.666 12.1565 160.785 12.2135 160.058 11.9475C159.33 11.6815 158.756 11.2255 158.334 10.5795C157.951 9.93352 157.76 9.23052 157.76 8.47051C157.798 7.71051 158.047 6.9885 158.507 6.30449C159.004 5.62049 159.751 5.08849 160.747 4.70848C162.585 4.02448 164.27 3.56847 165.802 3.34047C167.372 3.11247 168.809 2.99847 170.111 2.99847C173.251 2.99847 175.836 3.45447 177.866 4.36648C179.934 5.24049 181.466 6.6085 182.462 8.47051C183.496 10.2945 184.013 12.6505 184.013 15.5386V27.0527C184.013 28.7247 183.61 29.9977 182.806 30.8717C182.002 31.7457 180.834 32.1827 179.302 32.1827C177.732 32.1827 176.525 31.7457 175.683 30.8717C174.879 29.9977 174.477 28.7247 174.477 27.0527V25.5706L174.821 26.3686C174.63 27.5847 174.189 28.6297 173.5 29.5037C172.811 30.3777 171.911 31.0617 170.8 31.5557C169.689 32.0497 168.426 32.2967 167.009 32.2967Z" fill="#201F4F"/>
<path d="M115.514 78.0061C112.642 78.0061 110.268 77.5691 108.391 76.6951C106.553 75.8211 105.174 74.5101 104.255 72.7621C103.336 70.9761 102.876 68.7531 102.876 66.093V56.802H100.923C99.6976 56.802 98.7401 56.479 98.0508 55.833C97.3997 55.187 97.0742 54.2559 97.0742 53.0399C97.0742 51.8239 97.3997 50.9119 98.0508 50.3039C98.7401 49.6579 99.6976 49.3349 100.923 49.3349H102.876V45.8009C102.876 44.1289 103.317 42.8559 104.197 41.9819C105.078 41.1078 106.342 40.6708 107.989 40.6708C109.636 40.6708 110.899 41.1078 111.78 41.9819C112.661 42.8559 113.102 44.1289 113.102 45.8009V49.3349H117.812C119.076 49.3349 120.033 49.6579 120.684 50.3039C121.374 50.9119 121.718 51.8239 121.718 53.0399C121.718 54.2559 121.374 55.187 120.684 55.833C120.033 56.479 119.076 56.802 117.812 56.802H113.102V65.751C113.102 67.157 113.427 68.202 114.078 68.8861C114.768 69.5321 115.84 69.8551 117.295 69.8551C117.831 69.8551 118.348 69.7981 118.846 69.6841C119.344 69.5701 119.804 69.5131 120.225 69.5131C120.838 69.4751 121.335 69.6651 121.718 70.0831C122.101 70.4631 122.293 71.3561 122.293 72.7621C122.293 73.9021 122.121 74.8711 121.776 75.6691C121.431 76.4291 120.818 76.9801 119.938 77.3221C119.401 77.5121 118.674 77.6641 117.755 77.7781C116.836 77.9301 116.089 78.0061 115.514 78.0061Z" fill="#201F4F"/>
<path d="M140.268 78.0061C136.821 78.0061 133.834 77.4171 131.306 76.2391C128.817 75.0231 126.902 73.3131 125.561 71.1091C124.221 68.9051 123.551 66.302 123.551 63.3C123.551 60.412 124.183 57.885 125.447 55.719C126.749 53.5149 128.51 51.8049 130.732 50.5889C132.991 49.3349 135.557 48.7079 138.429 48.7079C140.536 48.7079 142.451 49.0499 144.174 49.7339C145.897 50.3799 147.372 51.3489 148.597 52.6409C149.823 53.8949 150.742 55.415 151.355 57.201C152.006 58.987 152.331 60.982 152.331 63.186C152.331 63.946 152.121 64.516 151.699 64.896C151.278 65.238 150.608 65.409 149.689 65.409H132.11V60.621H144.863L143.944 61.362C143.944 59.956 143.753 58.816 143.37 57.942C142.987 57.068 142.412 56.403 141.646 55.947C140.919 55.491 140 55.263 138.889 55.263C137.702 55.263 136.668 55.548 135.787 56.118C134.944 56.65 134.293 57.448 133.834 58.512C133.374 59.576 133.144 60.906 133.144 62.502V63.015C133.144 65.713 133.738 67.6511 134.925 68.8291C136.151 69.9691 138.027 70.5391 140.555 70.5391C141.397 70.5391 142.355 70.4441 143.427 70.2541C144.538 70.0261 145.591 69.7221 146.587 69.3421C147.582 68.9621 148.444 68.9051 149.172 69.1711C149.899 69.3991 150.455 69.8171 150.838 70.4251C151.259 70.9951 151.489 71.6601 151.527 72.4201C151.565 73.1421 151.393 73.8641 151.01 74.5861C150.627 75.2701 149.995 75.8021 149.114 76.1821C147.774 76.7901 146.338 77.2461 144.806 77.5501C143.312 77.8541 141.799 78.0061 140.268 78.0061Z" fill="#201F4F"/>
<path d="M161.792 77.8921C160.183 77.8921 158.939 77.4551 158.058 76.5811C157.177 75.7071 156.737 74.4341 156.737 72.7621V41.8109C156.737 40.1388 157.177 38.8658 158.058 37.9918C158.939 37.1178 160.183 36.6808 161.792 36.6808C163.439 36.6808 164.702 37.1178 165.583 37.9918C166.502 38.8658 166.962 40.1388 166.962 41.8109V60.621H167.077L174.085 52.1849C175.043 51.0449 175.923 50.2089 176.728 49.6769C177.57 49.1069 178.7 48.8219 180.117 48.8219C181.534 48.8219 182.625 49.1639 183.391 49.8479C184.157 50.5319 184.559 51.3869 184.598 52.4129C184.636 53.4389 184.215 54.465 183.334 55.491L175.751 64.383V60.849L184.253 71.4511C185.096 72.5151 185.44 73.5601 185.287 74.5861C185.134 75.5741 184.636 76.3721 183.794 76.9801C182.989 77.5881 181.955 77.8921 180.691 77.8921C179.16 77.8921 177.934 77.6261 177.015 77.0941C176.096 76.5241 175.177 75.6501 174.258 74.4721L167.077 65.694H166.962V72.7621C166.962 76.1821 165.239 77.8921 161.792 77.8921Z" fill="#201F4F"/>
<circle cx="193.705" cy="72.7099" r="5.29489" fill="#EB8145"/>
</svg>
